<svg width="18" height="18" viewBox="0 0 18 18" fill="none" xmlns="http://www.w3.org/2000/svg">
<path d="M13.6666 17.1667C12.7384 17.1667 11.8482 16.7979 11.1918 16.1415C10.5354 15.4852 10.1666 14.5949 10.1666 13.6667C10.1666 12.7384 10.5354 11.8482 11.1918 11.1918C11.8482 10.5354 12.7384 10.1667 13.6666 10.1667C14.5949 10.1667 15.4851 10.5354 16.1415 11.1918C16.7979 11.8482 17.1666 12.7384 17.1666 13.6667C17.1666 14.5949 16.7979 15.4852 16.1415 16.1415C15.4851 16.7979 14.5949 17.1667 13.6666 17.1667ZM4.33331 17.1667C3.40506 17.1667 2.51482 16.7979 1.85844 16.1415C1.20206 15.4852 0.833313 14.5949 0.833313 13.6667C0.833313 12.7384 1.20206 11.8482 1.85844 11.1918C2.51482 10.5354 3.40506 10.1667 4.33331 10.1667C5.26157 10.1667 6.15181 10.5354 6.80819 11.1918C7.46456 11.8482 7.83331 12.7384 7.83331 13.6667C7.83331 14.5949 7.46456 15.4852 6.80819 16.1415C6.15181 16.7979 5.26157 17.1667 4.33331 17.1667ZM13.6666 7.83333C12.7384 7.83333 11.8482 7.46459 11.1918 6.80821C10.5354 6.15183 10.1666 5.26159 10.1666 4.33333C10.1666 3.40508 10.5354 2.51484 11.1918 1.85846C11.8482 1.20208 12.7384 0.833333 13.6666 0.833333C14.5949 0.833333 15.4851 1.20208 16.1415 1.85846C16.7979 2.51484 17.1666 3.40508 17.1666 4.33333C17.1666 5.26159 16.7979 6.15183 16.1415 6.80821C15.4851 7.46459 14.5949 7.83333 13.6666 7.83333ZM4.33331 7.83333C3.40506 7.83333 2.51482 7.46459 1.85844 6.80821C1.20206 6.15183 0.833313 5.26159 0.833313 4.33333C0.833313 3.40508 1.20206 2.51484 1.85844 1.85846C2.51482 1.20208 3.40506 0.833333 4.33331 0.833333C5.26157 0.833333 6.15181 1.20208 6.80819 1.85846C7.46456 2.51484 7.83331 3.40508 7.83331 4.33333C7.83331 5.26159 7.46456 6.15183 6.80819 6.80821C6.15181 7.46459 5.26157 7.83333 4.33331 7.83333Z" fill="black"/>
</svg>
