<svg width="22" height="20" viewBox="0 0 22 20" fill="none" xmlns="http://www.w3.org/2000/svg">
<path d="M3.5 4.75H18.5C19.2956 4.75 20.0587 5.06607 20.6213 5.62868C21.1839 6.19129 21.5 6.95435 21.5 7.75V12.25C21.5 13.0456 21.1839 13.8087 20.6213 14.3713C20.0587 14.9339 19.2956 15.25 18.5 15.25H3.5C2.70435 15.25 1.94129 14.9339 1.37868 14.3713C0.816071 13.8087 0.5 13.0456 0.5 12.25V7.75C0.5 6.95435 0.816071 6.19129 1.37868 5.62868C1.94129 5.06607 2.70435 4.75 3.5 4.75ZM3.5 6.25C3.10218 6.25 2.72064 6.40804 2.43934 6.68934C2.15804 6.97064 2 7.35218 2 7.75V12.25C2 12.6478 2.15804 13.0294 2.43934 13.3107C2.72064 13.592 3.10218 13.75 3.5 13.75H18.5C18.8978 13.75 19.2794 13.592 19.5607 13.3107C19.842 13.0294 20 12.6478 20 12.25V7.75C20 7.35218 19.842 6.97064 19.5607 6.68934C19.2794 6.40804 18.8978 6.25 18.5 6.25H3.5ZM0.5 1C0.5 0.801088 0.579018 0.610322 0.71967 0.46967C0.860322 0.329018 1.05109 0.25 1.25 0.25H20.75C20.9489 0.25 21.1397 0.329018 21.2803 0.46967C21.421 0.610322 21.5 0.801088 21.5 1C21.5 1.19891 21.421 1.38968 21.2803 1.53033C21.1397 1.67098 20.9489 1.75 20.75 1.75H1.25C1.05109 1.75 0.860322 1.67098 0.71967 1.53033C0.579018 1.38968 0.5 1.19891 0.5 1ZM0.5 19C0.5 18.8011 0.579018 18.6103 0.71967 18.4697C0.860322 18.329 1.05109 18.25 1.25 18.25H20.75C20.9489 18.25 21.1397 18.329 21.2803 18.4697C21.421 18.6103 21.5 18.8011 21.5 19C21.5 19.1989 21.421 19.3897 21.2803 19.5303C21.1397 19.671 20.9489 19.75 20.75 19.75H1.25C1.05109 19.75 0.860322 19.671 0.71967 19.5303C0.579018 19.3897 0.5 19.1989 0.5 19Z" fill="black"/>
</svg>
