<svg width="224" height="24" viewBox="0 0 224 24" fill="none" xmlns="http://www.w3.org/2000/svg">
<path d="M125.496 7.536V6.528H128.216V18H127.08V7.536H125.496ZM130.488 17.12C132.451 15.648 133.965 14.3307 135.032 13.168C136.109 11.9947 136.648 10.848 136.648 9.728C136.648 8.992 136.461 8.40533 136.088 7.968C135.725 7.52 135.128 7.296 134.296 7.296C133.485 7.296 132.856 7.552 132.408 8.064C131.971 8.56533 131.725 9.23733 131.672 10.08H130.584C130.648 8.896 131.011 7.97867 131.672 7.328C132.344 6.66667 133.219 6.336 134.296 6.336C135.331 6.336 136.168 6.62933 136.808 7.216C137.448 7.792 137.768 8.61333 137.768 9.68C137.768 10.9707 137.229 12.224 136.152 13.44C135.085 14.6453 133.768 15.824 132.2 16.976H138.12V17.92H130.488V17.12ZM140.47 7.3248V10.5792C140.47 10.8992 140.531 11.12 140.652 11.2416C140.774 11.3632 140.988 11.424 141.295 11.424H141.91V12H141.19C140.716 12 140.364 11.8912 140.134 11.6736C139.903 11.4496 139.788 11.0848 139.788 10.5792V7.3248H139.059V6.7584H139.788V5.4432H140.47V6.7584H141.91V7.3248H140.47ZM145.802 6.6624C146.199 6.6624 146.554 6.7456 146.868 6.912C147.188 7.0784 147.437 7.3344 147.616 7.68C147.802 8.0192 147.895 8.4352 147.895 8.928V12H147.232V9.0048C147.232 8.4352 147.088 8 146.8 7.6992C146.519 7.3984 146.132 7.248 145.639 7.248C145.133 7.248 144.73 7.408 144.429 7.728C144.128 8.048 143.978 8.5184 143.978 9.1392V12H143.306V4.896H143.978V7.6512C144.144 7.3376 144.388 7.0944 144.708 6.9216C145.034 6.7488 145.399 6.6624 145.802 6.6624ZM159.596 18.112C158.561 18.112 157.622 17.872 156.78 17.392C155.937 16.9013 155.27 16.224 154.78 15.36C154.3 14.4853 154.06 13.4987 154.06 12.4C154.06 11.3013 154.3 10.32 154.78 9.456C155.27 8.58133 155.937 7.904 156.78 7.424C157.622 6.93333 158.561 6.688 159.596 6.688C160.641 6.688 161.585 6.93333 162.428 7.424C163.27 7.904 163.932 8.58133 164.412 9.456C164.892 10.32 165.132 11.3013 165.132 12.4C165.132 13.4987 164.892 14.4853 164.412 15.36C163.932 16.224 163.27 16.9013 162.428 17.392C161.585 17.872 160.641 18.112 159.596 18.112ZM159.596 17.136C160.428 17.136 161.174 16.944 161.836 16.56C162.497 16.176 163.02 15.6267 163.404 14.912C163.788 14.1867 163.98 13.3493 163.98 12.4C163.98 11.4507 163.788 10.6187 163.404 9.904C163.02 9.18933 162.497 8.64 161.836 8.256C161.174 7.872 160.428 7.68 159.596 7.68C158.764 7.68 158.017 7.872 157.356 8.256C156.694 8.64 156.172 9.18933 155.788 9.904C155.404 10.6187 155.212 11.4507 155.212 12.4C155.212 13.3493 155.404 14.1867 155.788 14.912C156.172 15.6267 156.694 16.176 157.356 16.56C158.017 16.944 158.764 17.136 159.596 17.136ZM166.669 13.632C166.669 12.7253 166.85 11.936 167.213 11.264C167.576 10.5813 168.077 10.0587 168.717 9.696C169.357 9.32267 170.088 9.136 170.909 9.136C171.986 9.136 172.872 9.40267 173.565 9.936C174.269 10.4693 174.722 11.1947 174.925 12.112H173.725C173.576 11.4827 173.25 10.992 172.749 10.64C172.258 10.2773 171.645 10.096 170.909 10.096C170.322 10.096 169.794 10.2293 169.325 10.496C168.856 10.7627 168.482 11.1627 168.205 11.696C167.938 12.2187 167.805 12.864 167.805 13.632C167.805 14.4 167.938 15.0507 168.205 15.584C168.482 16.1173 168.856 16.5173 169.325 16.784C169.794 17.0507 170.322 17.184 170.909 17.184C171.645 17.184 172.258 17.008 172.749 16.656C173.25 16.2933 173.576 15.792 173.725 15.152H174.925C174.722 16.048 174.269 16.768 173.565 17.312C172.861 17.856 171.976 18.128 170.909 18.128C170.088 18.128 169.357 17.9467 168.717 17.584C168.077 17.2107 167.576 16.688 167.213 16.016C166.85 15.3333 166.669 14.5387 166.669 13.632ZM178.45 10.208V15.632C178.45 16.1653 178.551 16.5333 178.754 16.736C178.956 16.9387 179.314 17.04 179.826 17.04H180.85V18H179.65C178.86 18 178.274 17.8187 177.89 17.456C177.506 17.0827 177.314 16.4747 177.314 15.632V10.208H176.098V9.264H177.314V7.072H178.45V9.264H180.85V10.208H178.45ZM186.623 17.12C188.586 15.648 190.101 14.3307 191.167 13.168C192.245 11.9947 192.783 10.848 192.783 9.728C192.783 8.992 192.597 8.40533 192.223 7.968C191.861 7.52 191.263 7.296 190.431 7.296C189.621 7.296 188.991 7.552 188.543 8.064C188.106 8.56533 187.861 9.23733 187.807 10.08H186.719C186.783 8.896 187.146 7.97867 187.807 7.328C188.479 6.66667 189.354 6.336 190.431 6.336C191.466 6.336 192.303 6.62933 192.943 7.216C193.583 7.792 193.903 8.61333 193.903 9.68C193.903 10.9707 193.365 12.224 192.287 13.44C191.221 14.6453 189.903 15.824 188.335 16.976H194.255V17.92H186.623V17.12ZM196.004 12.16C196.004 10.3253 196.286 8.90133 196.852 7.888C197.417 6.87467 198.43 6.368 199.892 6.368C201.353 6.368 202.366 6.87467 202.932 7.888C203.497 8.90133 203.78 10.3253 203.78 12.16C203.78 14.0267 203.497 15.472 202.932 16.496C202.366 17.52 201.353 18.032 199.892 18.032C198.42 18.032 197.401 17.52 196.836 16.496C196.281 15.472 196.004 14.0267 196.004 12.16ZM202.676 12.16C202.676 11.168 202.606 10.3307 202.468 9.648C202.329 8.96533 202.057 8.416 201.652 8C201.246 7.584 200.66 7.376 199.892 7.376C199.124 7.376 198.537 7.584 198.132 8C197.726 8.416 197.454 8.96533 197.316 9.648C197.177 10.3307 197.108 11.168 197.108 12.16C197.108 13.184 197.177 14.0427 197.316 14.736C197.454 15.4187 197.726 15.968 198.132 16.384C198.537 16.8 199.124 17.008 199.892 17.008C200.66 17.008 201.246 16.8 201.652 16.384C202.057 15.968 202.329 15.4187 202.468 14.736C202.606 14.0427 202.676 13.184 202.676 12.16ZM205.639 17.12C207.602 15.648 209.116 14.3307 210.183 13.168C211.26 11.9947 211.799 10.848 211.799 9.728C211.799 8.992 211.612 8.40533 211.239 7.968C210.876 7.52 210.279 7.296 209.447 7.296C208.636 7.296 208.007 7.552 207.559 8.064C207.122 8.56533 206.876 9.23733 206.823 10.08H205.735C205.799 8.896 206.162 7.97867 206.823 7.328C207.495 6.66667 208.37 6.336 209.447 6.336C210.482 6.336 211.319 6.62933 211.959 7.216C212.599 7.792 212.919 8.61333 212.919 9.68C212.919 10.9707 212.38 12.224 211.303 13.44C210.236 14.6453 208.919 15.824 207.351 16.976H213.271V17.92H205.639V17.12ZM214.795 17.12C216.758 15.648 218.272 14.3307 219.339 13.168C220.416 11.9947 220.955 10.848 220.955 9.728C220.955 8.992 220.768 8.40533 220.395 7.968C220.032 7.52 219.435 7.296 218.603 7.296C217.792 7.296 217.163 7.552 216.715 8.064C216.278 8.56533 216.032 9.23733 215.979 10.08H214.891C214.955 8.896 215.318 7.97867 215.979 7.328C216.651 6.66667 217.526 6.336 218.603 6.336C219.638 6.336 220.475 6.62933 221.115 7.216C221.755 7.792 222.075 8.61333 222.075 9.68C222.075 10.9707 221.536 12.224 220.459 13.44C219.392 14.6453 218.075 15.824 216.507 16.976H222.427V17.92H214.795V17.12Z" fill="black"/>
<path d="M110.417 3.66659H108.583V2.74992C108.583 2.5068 108.487 2.27365 108.315 2.10174C108.143 1.92983 107.91 1.83325 107.667 1.83325C107.424 1.83325 107.19 1.92983 107.018 2.10174C106.847 2.27365 106.75 2.5068 106.75 2.74992V3.66659H101.25V2.74992C101.25 2.5068 101.153 2.27365 100.982 2.10174C100.81 1.92983 100.576 1.83325 100.333 1.83325C100.09 1.83325 99.8571 1.92983 99.6852 2.10174C99.5133 2.27365 99.4167 2.5068 99.4167 2.74992V3.66659H97.5833C96.854 3.66659 96.1545 3.95632 95.6388 4.47204C95.1231 4.98777 94.8333 5.68724 94.8333 6.41658V17.4166C94.8333 18.1459 95.1231 18.8454 95.6388 19.3611C96.1545 19.8769 96.854 20.1666 97.5833 20.1666H110.417C111.146 20.1666 111.845 19.8769 112.361 19.3611C112.877 18.8454 113.167 18.1459 113.167 17.4166V6.41658C113.167 5.68724 112.877 4.98777 112.361 4.47204C111.845 3.95632 111.146 3.66659 110.417 3.66659ZM111.333 17.4166C111.333 17.6597 111.237 17.8929 111.065 18.0648C110.893 18.2367 110.66 18.3333 110.417 18.3333H97.5833C97.3402 18.3333 97.1071 18.2367 96.9352 18.0648C96.7633 17.8929 96.6667 17.6597 96.6667 17.4166V10.9999H111.333V17.4166ZM111.333 9.16658H96.6667V6.41658C96.6667 6.17347 96.7633 5.94031 96.9352 5.7684C97.1071 5.5965 97.3402 5.49992 97.5833 5.49992H99.4167V6.41658C99.4167 6.6597 99.5133 6.89286 99.6852 7.06477C99.8571 7.23667 100.09 7.33325 100.333 7.33325C100.576 7.33325 100.81 7.23667 100.982 7.06477C101.153 6.89286 101.25 6.6597 101.25 6.41658V5.49992H106.75V6.41658C106.75 6.6597 106.847 6.89286 107.018 7.06477C107.19 7.23667 107.424 7.33325 107.667 7.33325C107.91 7.33325 108.143 7.23667 108.315 7.06477C108.487 6.89286 108.583 6.6597 108.583 6.41658V5.49992H110.417C110.66 5.49992 110.893 5.5965 111.065 5.7684C111.237 5.94031 111.333 6.17347 111.333 6.41658V9.16658Z" fill="black"/>
<path d="M37.272 7.488H31.416V11.584C31.6827 11.2107 32.072 10.9067 32.584 10.672C33.096 10.4267 33.6507 10.304 34.248 10.304C35.1227 10.304 35.8373 10.4853 36.392 10.848C36.9467 11.2 37.3467 11.664 37.592 12.24C37.8373 12.8053 37.96 13.4133 37.96 14.064C37.96 14.8107 37.816 15.488 37.528 16.096C37.2507 16.6933 36.8187 17.168 36.232 17.52C35.656 17.872 34.936 18.048 34.072 18.048C32.9733 18.048 32.0827 17.7653 31.4 17.2C30.7173 16.624 30.3013 15.8507 30.152 14.88H31.256C31.3947 15.584 31.7147 16.128 32.216 16.512C32.7173 16.896 33.336 17.088 34.072 17.088C35 17.088 35.6987 16.816 36.168 16.272C36.648 15.7173 36.888 14.9867 36.888 14.08C36.888 13.1947 36.648 12.5067 36.168 12.016C35.688 11.5147 35 11.264 34.104 11.264C33.4853 11.264 32.9413 11.408 32.472 11.696C32.0027 11.984 31.656 12.3733 31.432 12.864H30.376V6.512H37.272V7.488ZM54.9456 9.104C55.9696 9.104 56.8016 9.42933 57.4416 10.08C58.0923 10.72 58.4176 11.6533 58.4176 12.88V18H57.3136V13.008C57.3136 12.0587 57.0843 11.3333 56.6256 10.832C56.167 10.3307 55.543 10.08 54.7536 10.08C53.9323 10.08 53.2763 10.352 52.7856 10.896C52.295 11.44 52.0496 12.2293 52.0496 13.264V18H50.9456V13.008C50.9456 12.0587 50.7163 11.3333 50.2576 10.832C49.799 10.3307 49.1696 10.08 48.3696 10.08C47.5483 10.08 46.8923 10.352 46.4016 10.896C45.911 11.44 45.6656 12.2293 45.6656 13.264V18H44.5456V9.264H45.6656V10.768C45.943 10.224 46.3376 9.81333 46.8496 9.536C47.3616 9.248 47.9323 9.104 48.5616 9.104C49.319 9.104 49.9803 9.28533 50.5456 9.648C51.1216 10.0107 51.5376 10.544 51.7936 11.248C52.0283 10.5547 52.4283 10.0267 52.9936 9.664C53.5696 9.29067 54.2203 9.104 54.9456 9.104ZM61.465 7.616C61.241 7.616 61.049 7.536 60.889 7.376C60.729 7.216 60.649 7.01867 60.649 6.784C60.649 6.54933 60.729 6.35733 60.889 6.208C61.049 6.048 61.241 5.968 61.465 5.968C61.689 5.968 61.881 6.048 62.041 6.208C62.201 6.35733 62.281 6.54933 62.281 6.784C62.281 7.01867 62.201 7.216 62.041 7.376C61.881 7.536 61.689 7.616 61.465 7.616ZM62.025 9.264V18H60.905V9.264H62.025ZM68.6573 9.104C69.7026 9.104 70.5559 9.42933 71.2173 10.08C71.8786 10.72 72.2093 11.6533 72.2093 12.88V18H71.1053V13.008C71.1053 12.0587 70.8653 11.3333 70.3853 10.832C69.9159 10.3307 69.2706 10.08 68.4493 10.08C67.6066 10.08 66.9346 10.3467 66.4333 10.88C65.9319 11.4133 65.6813 12.1973 65.6813 13.232V18H64.5613V9.264H65.6813V10.752C65.9586 10.2187 66.3586 9.81333 66.8813 9.536C67.4039 9.248 67.9959 9.104 68.6573 9.104Z" fill="black"/>
<path d="M10 20.8306C14.9706 20.8306 19 16.8391 19 11.9153C19 6.99151 14.9706 3 10 3C5.02944 3 1 6.99151 1 11.9153C1 16.8391 5.02944 20.8306 10 20.8306Z" stroke="black" stroke-width="2" stroke-linecap="round" stroke-linejoin="round"/>
<path d="M12.7 15.4815L10.5274 13.3293C10.1898 12.995 10.0001 12.5415 10 12.0687V6.56616" stroke="black" stroke-width="2" stroke-linecap="round" stroke-linejoin="round"/>
</svg>
