<svg width="20" height="20" viewBox="0 0 20 20" fill="none" xmlns="http://www.w3.org/2000/svg">
<path d="M16.4167 2.66659H14.5833V1.74992C14.5833 1.5068 14.4868 1.27365 14.3149 1.10174C14.143 0.929829 13.9098 0.833252 13.6667 0.833252C13.4236 0.833252 13.1904 0.929829 13.0185 1.10174C12.8466 1.27365 12.75 1.5068 12.75 1.74992V2.66659H7.25001V1.74992C7.25001 1.5068 7.15343 1.27365 6.98152 1.10174C6.80962 0.929829 6.57646 0.833252 6.33334 0.833252C6.09023 0.833252 5.85707 0.929829 5.68516 1.10174C5.51325 1.27365 5.41668 1.5068 5.41668 1.74992V2.66659H3.58334C2.854 2.66659 2.15452 2.95632 1.6388 3.47204C1.12307 3.98777 0.833344 4.68724 0.833344 5.41658V16.4166C0.833344 17.1459 1.12307 17.8454 1.6388 18.3611C2.15452 18.8769 2.854 19.1666 3.58334 19.1666H16.4167C17.146 19.1666 17.8455 18.8769 18.3612 18.3611C18.8769 17.8454 19.1667 17.1459 19.1667 16.4166V5.41658C19.1667 4.68724 18.8769 3.98777 18.3612 3.47204C17.8455 2.95632 17.146 2.66659 16.4167 2.66659ZM17.3333 16.4166C17.3333 16.6597 17.2368 16.8929 17.0649 17.0648C16.893 17.2367 16.6598 17.3333 16.4167 17.3333H3.58334C3.34023 17.3333 3.10707 17.2367 2.93516 17.0648C2.76325 16.8929 2.66668 16.6597 2.66668 16.4166V9.99992H17.3333V16.4166ZM17.3333 8.16658H2.66668V5.41658C2.66668 5.17347 2.76325 4.94031 2.93516 4.7684C3.10707 4.5965 3.34023 4.49992 3.58334 4.49992H5.41668V5.41658C5.41668 5.6597 5.51325 5.89286 5.68516 6.06477C5.85707 6.23667 6.09023 6.33325 6.33334 6.33325C6.57646 6.33325 6.80962 6.23667 6.98152 6.06477C7.15343 5.89286 7.25001 5.6597 7.25001 5.41658V4.49992H12.75V5.41658C12.75 5.6597 12.8466 5.89286 13.0185 6.06477C13.1904 6.23667 13.4236 6.33325 13.6667 6.33325C13.9098 6.33325 14.143 6.23667 14.3149 6.06477C14.4868 5.89286 14.5833 5.6597 14.5833 5.41658V4.49992H16.4167C16.6598 4.49992 16.893 4.5965 17.0649 4.7684C17.2368 4.94031 17.3333 5.17347 17.3333 5.41658V8.16658Z" fill="black"/>
</svg>
